<svg width="38" height="40" fill="none" xmlns="http://www.w3.org/2000/svg"><path d="M18.813 1C8.975 1 1 9.395 1 19.75S8.975 38.5 18.813 38.5c9.837 0 17.812-8.395 17.812-18.75S28.65 1 18.812 1ZM2.634 22.054l5.087 1.333a8.792 8.792 0 0 0-.044.782c-.001 2.06.49 4.088 1.43 5.895l-2.561 1.014c-2.12-2.537-3.481-5.676-3.912-9.024Zm16.178 14.884c-4.069 0-7.791-1.578-10.654-4.18l2.124-.852c2.043 2.64 5.107 4.323 8.53 4.323 3.422 0 6.486-1.683 8.53-4.323l2.123.853c-2.862 2.6-6.584 4.178-10.654 4.178Zm-9.65-12.77c0-3.619 2.219-4.345 5.797-4.345.656 0 1.321.023 1.973.046 1.253.047 2.506.047 3.76 0 .652-.023 1.317-.046 1.972-.046 3.58 0 5.797.726 5.797 4.346 0 5.788-4.329 10.498-9.65 10.498-5.32 0-9.649-4.71-9.649-10.498Zm21.915 6.909-2.561-1.014a12.763 12.763 0 0 0 1.43-5.894c0-.277-.021-.53-.043-.783l5.086-1.332c-.43 3.348-1.79 6.487-3.912 9.023ZM29.38 21.27c-1.385-3-4.977-3.01-6.715-3.01-.672 0-1.353.024-2.023.049-1.219.045-2.44.045-3.658 0a55.733 55.733 0 0 0-2.024-.048c-1.738 0-5.33.01-6.714 3.009l-5.76-1.499-.002-.021a17.71 17.71 0 0 1 3.007-9.92c.218.313.579.59.732.45a8.313 8.313 0 0 1 3.263-1.795 8.04 8.04 0 0 1 3.678-.164c.345.07.649-1.263.231-1.347a9.332 9.332 0 0 0-6.743 1.322c2.992-3.516 7.334-5.733 12.16-5.733 4.914 0 9.324 2.299 12.32 5.925a9.339 9.339 0 0 0-6.902-1.42c-.417.084-.114 1.418.23 1.347 2.475-.467 5.022.25 6.942 1.958.16.147.553-.164.764-.495 1.939 2.887 2.978 6.337 2.975 9.872v.02l-5.761 1.5Z" fill="#DC1E1E"/><path d="M22.018 12.533c-.454.165-.796.185-.737.46 1.193 5.483 6.059 6.854 9.698 2.736.181-.208-.106-.405-.42-.789-2.934 1.322-6.806.03-8.54-2.407ZM15.983 12.532c-1.912 2.687-5.88 3.607-8.54 2.41-.314.381-.602.579-.42.787 3.638 4.12 8.503 2.747 9.699-2.736.057-.275-.284-.296-.739-.461Z" fill="#DC1E1E"/></svg>